<?xml version="1.0" encoding="UTF-8"?><svg id="a" xmlns="http://www.w3.org/2000/svg" viewBox="0 0 398.646 408.525"><path d="M179.326,342.304c6.938,3.904,12.981,8.852,18.549,14.482,3.558,3.598,6.059,7.62,7.814,12.424,3.228,8.835,1.88,20.262-4.168,27.763-5.075,6.293-12.584,9.79-20.615,10.967-4.503.66-12.437.78-16.894.266l-11.928-1.375c-16.454-3.37-32.273-8.406-47.295-15.902-11.257-5.618-21.764-11.605-31.84-19.027-8.751-6.446-16.781-12.998-24.498-20.665-14.23-14.139-26.077-30.039-34.864-48.073-5.024-10.311-8.543-20.917-11.108-32.091C.629,263.011.112,255.428.008,247.132c-.295-23.712,7.4-46.606,25.111-62.569,11.358-10.237,26.193-14.455,41.204-11.906,6.504,1.105,12.323,3.07,18.431,5.598,11.86,4.907,22.953,10.46,34.326,16.474l42.665,22.56c4.676,2.473,8.954,4.893,13.01,8.139,3.218,2.575,5.296,6.692,3.55,10.633-1.325,2.99-4.419,4.932-7.335,5.986l-10.963,3.963-23.98,6.711c-8.478,3.05-16.988,5.212-24.808,9.707-4.935,2.836-9.739,5.947-12.744,10.682-1.716,2.703-3.592,5.835-3.266,9.051.637,6.28,4.202,11.671,8.923,15.905,7.634,6.847,16.286,11.947,25.353,16.812l23.726,12.731,26.116,14.695Z" fill="#fff"/><polygon points="165.83 209.501 166.154 209.501 166.467 209.509 166.154 209.518 165.83 209.518 165.516 209.509 165.83 209.501" fill="#1f8a8f"/><path d="M262.627,123.106c-.006,4.251,1.307,9.088,5.165,11.815-.513,5.901-.588,11.317-.171,17.45-2.704-.137-5.3-2.677-7.316-4.803.458,4.67,3.931,8.97,7.858,11.114,1.269,7.935,2.701,15.732,5.924,23.163.77,1.775,2.777,3.41,2.375,5.877-3.334-1.423-6.744-3.42-9.52-5.479-24.94-18.502-32.824-51.893-18.034-79.244,3.581-6.621,8.432-12.406,14.675-17.568-9.817,2.064-18.224,6.426-26.205,11.411-4.32,2.698-8.527,5.592-12.591,9.06l-8.061,6.879c-1.362-4.038-.908-7.718-.611-12.283-4.078,5.757-6.457,12.272-7.235,19.25-4.406,4.623-8.045,9.401-11.844,14.883-1.247-1.905-1.435-5.267-1.773-7.264l-.056-2.458M193.889,128.367c-1.831,4.073-2.075,9.675-2.042,13.435.073,8.291-6.08,15.093-6.989,24.002-3.994-4.872-5.573-10.185-7.147-15.785-5.384-19.15-.077-40.804,12.915-55.694l3.791-4.346,7.181-6.34c10.226-8.222,22.468-12.793,35.518-14.259l9.66-.341-6.073-2.171c-16.491-4.353-33.616-4.589-50.356-1.639.958-4.35,3.036-7.377,5.215-10.885-6.285,2.702-12.373,11.431-12.373,11.431-7.903,1.485-21.318,4.279-26.065,6.14,0,0,1.172-3.894,1.667-5.155.726-1.847,3.352-7.194,3.352-7.194-9.195,6.947-10.761,13.622-11.511,13.962-8.91,4.05-18.031,9.348-25.366,16.21.262-8.183,3.151-14.974,7.046-21.674,6.358-10.935,15.641-20.165,26.651-26.412,18.845-10.691,40.502-14.286,61.344-9.057,11.64,2.92,23.205,8.111,32.135,15.908l6.816,5.951.583.518c-5.523-14.159-13.413-21.373-17.454-24.58-.437-.347,8.58-2.188,9-2.028-5.101-1.952-12.772-1.505-12.772-1.505,0,0-10.148-8.16-16.302-10.87,1.666-2.12,6.78-3.664,7.35-3.498-3.746-1.09-11.325,1.077-11.325,1.077,0,0-15.03-5.32-23.342-5.857C203.985,1.9,214.038-.136,224.534.007c30.183.412,54.075,24.059,55.191,54.538,2.302-5.297,4.9-9.87,8.933-13.831,3.233-3.176,6.372-5.995,10.522-8.374,18.207-10.438,44.327-4.343,54.43,15.487-6.627-.93-12.961-2.137-19.057-.588,0,0-3.654-3.958-10.238-3.958,2.146,0,5.567,2.81,6.083,4.639-.019-.069-10.079,2.876-10.079,2.876-1.983-.798-4.904-3.405-10.943-2.792,1.181-.12,6.303,2.782,6.757,4.476-7.229,3.159-13.913,6.958-19.416,12.425,14.638-4.694,29.347-5.553,43.746-.661,24.318,8.261,41.354,29.17,37.526,55.951-3.829-5.212-8.446-9.12-12.917-13.569-.259-2.858-2.926-8.716-5.799-11.259.626.554,1.203,5.742.726,8.08l-6.674-4.141c-3.372-2.199-9.191-4.866-12.482-6.392-.283-.131-1.115-3.286-3.98-7.077-1.283-1.697-.863-1.209-2.282-2.713-.386-.409-1.357-1.056-1.357-1.056.622,2.009,1.931,5.986,1.796,8.678-6.228-2.877-12.459-4.315-18.842-6.187-4.117-1.207-8.121-2.139-12.51-2.358l8.009,3.996,13.482,8.171c58.328,37.436,84.264,109.478,69.344,176.427-5.82,26.115-17.17,50.423-33.845,71.231-9.293,11.597-20.197,21.115-31.931,29.91l-7.22,4.921c-14.87,10.135-34.825,19.821-52.57,24.838,6.783-3.885,13.708-6.329,19.719-11.211,9.866-8.013,18.955-16.309,27.525-25.752,29.418-32.413,47.373-70.879,52.23-114.624,5.245-47.241-10.521-95.663-42.851-130.246l-6.299-6.33c-10.491-9.548-21.773-17.923-34.873-24.52-7.613,9.584-12.568,19.506-14.988,31.038l-.961,8.093c-2.821-.983-4.612-2.436-5.601-4.537M333.847,83.123" fill="#fff"/><path d="M258.243,346.609c-6.796-6.501-13.565-12.01-21.316-16.838l-9.781-6.092-6.857-4.158-25.583-12.787c-9.034-4.515-18.128-8.139-26.642-13.648l-5.166-4.369c-3.664-3.098-3.172-8.52.203-11.832,3.226-3.166,7.073-5.329,11.353-6.897l13.998-5.129,14.167-5.048c8.129-2.896,21.997-9.286,20.672-17.692-1.209-7.67-11.668-13.112-18.605-16.894-12.145-6.621-25.121-10.666-38.271-15.333,10.396-.64,19.552,1.258,29.361,1.768l30.238,4.729,25.743,5.98,14.343,4.421c19.881,6.128,44.542,18.808,59.586,33.351,13.797,13.338,17.191,33.097,9.407,50.576-2.143,4.812-3.949,9.264-6.756,13.839l-5.449,8.881-8.871,12.841c-8.046,10.232-16.758,19.539-26.777,27.857l-9.159,6.563c-2.51-13.865-9.61-24.306-19.839-34.09Z" fill="#fff"/><path d="M194.407,89.946l-3.791,4.346c-12.992,14.891-18.299,36.544-12.915,55.694,1.574,5.6,3.154,10.913,7.147,15.785.909-8.909,6.989-24.002,6.989-24.002,0,0-.362-8.263,2.439-14.629l.922-2.265c.094,2.081.485,7.851,1.829,9.723,3.799-5.482,7.438-10.26,11.844-14.883.778-6.978,3.158-13.493,7.235-19.25-.297,4.565-.751,8.246.611,12.283l8.061-6.879c4.064-3.468,8.271-6.362,12.591-9.06.803.98,1.926,1.15,2.931,1.684l8.599,4.473c-14.79,27.351-6.907,60.742,18.034,79.244,2.775,2.059,5.608,3.831,8.942,5.254-.798-2.285-1.39-3.825-2.16-5.6-3.223-7.431-4.292-15.281-5.562-23.216-3.927-2.144-7.39-6.412-7.849-11.082,2.016,2.127,4.602,4.634,7.306,4.771-.418-6.132-.343-11.549.171-17.45-3.939-2.495-6.58-8.775-5.826-13.339l.671,1.557c.824,2.203,2.985,4.022,5.806,5.005l.873-7.239c13.929,15.207,21.77,36.483,22.001,57.183l.002,1.503.004,2.331-.005.556c.014.206.021.666,0,.887l-.081,1.051c-.773,12.729-4.099,25.236-10.24,36.91-19.288-7.202-38.889-12.491-59.318-15.804-17.393-2.821-34.252-4.946-51.805-5.791l-20.059-.173-26.42-13.822-12.026-6.158c.522-47.518,36.185-85.722,83.05-89.598Z" fill="#ea5a2a"/></svg>