<?xml version="1.0" encoding="UTF-8"?><svg id="a" xmlns="http://www.w3.org/2000/svg" viewBox="0 0 1430.488 408.525"><path d="M179.326,342.304c6.938,3.904,12.981,8.852,18.549,14.482,3.558,3.598,6.059,7.62,7.814,12.424,3.228,8.835,1.88,20.262-4.168,27.763-5.075,6.293-12.584,9.79-20.615,10.967-4.503.66-12.437.78-16.894.266l-11.928-1.375c-16.454-3.37-32.273-8.406-47.295-15.902-11.257-5.618-21.764-11.605-31.84-19.027-8.751-6.446-16.781-12.998-24.498-20.665-14.23-14.139-26.077-30.039-34.864-48.073-5.024-10.311-8.543-20.917-11.108-32.091C.629,263.011.112,255.428.008,247.132c-.295-23.712,7.4-46.606,25.111-62.569,11.358-10.237,26.193-14.455,41.204-11.906,6.504,1.105,12.323,3.07,18.431,5.598,11.86,4.907,22.953,10.46,34.326,16.474l42.665,22.56c4.676,2.473,8.954,4.893,13.01,8.139,3.218,2.575,5.296,6.692,3.55,10.633-1.325,2.99-4.419,4.932-7.335,5.986l-10.963,3.963-23.98,6.711c-8.478,3.05-16.988,5.212-24.808,9.707-4.935,2.836-9.739,5.947-12.744,10.682-1.716,2.703-3.592,5.835-3.266,9.051.637,6.28,4.202,11.671,8.923,15.905,7.634,6.847,16.286,11.947,25.353,16.812l23.726,12.731,26.116,14.695Z" fill="#0e1f38"/><polygon points="165.83 209.501 166.154 209.501 166.467 209.509 166.154 209.518 165.83 209.518 165.516 209.509 165.83 209.501" fill="#1f8a8f"/><path d="M262.627,123.106c-.006,4.251,1.307,9.088,5.165,11.815-.513,5.901-.588,11.317-.171,17.45-2.704-.137-5.3-2.677-7.316-4.803.458,4.67,3.931,8.97,7.858,11.114,1.269,7.935,2.701,15.732,5.924,23.163.77,1.775,2.777,3.41,2.375,5.877-3.334-1.423-6.744-3.42-9.52-5.479-24.94-18.502-32.824-51.893-18.034-79.244,3.581-6.621,8.432-12.406,14.675-17.568-9.817,2.064-18.224,6.426-26.205,11.411-4.32,2.698-8.527,5.592-12.591,9.06l-8.061,6.879c-1.362-4.038-.908-7.718-.611-12.283-4.078,5.757-6.457,12.272-7.235,19.25-4.406,4.623-8.045,9.401-11.844,14.883-1.247-1.905-1.435-5.267-1.773-7.264l-.056-2.458M193.889,128.367c-1.831,4.073-2.075,9.675-2.042,13.435.073,8.291-6.08,15.093-6.989,24.002-3.994-4.872-5.573-10.185-7.147-15.785-5.384-19.15-.077-40.804,12.915-55.694l3.791-4.346,7.181-6.34c10.226-8.222,22.468-12.793,35.518-14.259l9.66-.341-6.073-2.171c-16.491-4.353-33.616-4.589-50.356-1.639.958-4.35,3.036-7.377,5.215-10.885-6.285,2.702-12.373,11.431-12.373,11.431-7.903,1.485-21.318,4.279-26.065,6.14,0,0,1.172-3.894,1.667-5.155.726-1.847,3.352-7.194,3.352-7.194-9.195,6.947-10.761,13.622-11.511,13.962-8.91,4.05-18.031,9.348-25.366,16.21.262-8.183,3.151-14.974,7.046-21.674,6.358-10.935,15.641-20.165,26.651-26.412,18.845-10.691,40.502-14.286,61.344-9.057,11.64,2.92,23.205,8.111,32.135,15.908l6.816,5.951.583.518c-5.523-14.159-13.413-21.373-17.454-24.58-.437-.347,8.58-2.188,9-2.028-5.101-1.952-12.772-1.505-12.772-1.505,0,0-10.148-8.16-16.302-10.87,1.666-2.12,6.78-3.664,7.35-3.498-3.746-1.09-11.325,1.077-11.325,1.077,0,0-15.03-5.32-23.342-5.857C203.985,1.9,214.038-.136,224.534.007c30.183.412,54.075,24.059,55.191,54.538,2.302-5.297,4.9-9.87,8.933-13.831,3.233-3.176,6.372-5.995,10.522-8.374,18.207-10.438,44.327-4.343,54.43,15.487-6.627-.93-12.961-2.137-19.057-.588,0,0-3.654-3.958-10.238-3.958,2.146,0,5.567,2.81,6.083,4.639-.019-.069-10.079,2.876-10.079,2.876-1.983-.798-4.904-3.405-10.943-2.792,1.181-.12,6.303,2.782,6.757,4.476-7.229,3.159-13.913,6.958-19.416,12.425,14.638-4.694,29.347-5.553,43.746-.661,24.318,8.261,41.354,29.17,37.526,55.951-3.829-5.212-8.446-9.12-12.917-13.569-.259-2.858-2.926-8.716-5.799-11.259.626.554,1.203,5.742.726,8.08l-6.674-4.141c-3.372-2.199-9.191-4.866-12.482-6.392-.283-.131-1.115-3.286-3.98-7.077-1.283-1.697-.863-1.209-2.282-2.713-.386-.409-1.357-1.056-1.357-1.056.622,2.009,1.931,5.986,1.796,8.678-6.228-2.877-12.459-4.315-18.842-6.187-4.117-1.207-8.121-2.139-12.51-2.358l8.009,3.996,13.482,8.171c58.328,37.436,84.264,109.478,69.344,176.427-5.82,26.115-17.17,50.423-33.845,71.231-9.293,11.597-20.197,21.115-31.931,29.91l-7.22,4.921c-14.87,10.135-34.825,19.821-52.57,24.838,6.783-3.885,13.708-6.329,19.719-11.211,9.866-8.013,18.955-16.309,27.525-25.752,29.418-32.413,47.373-70.879,52.23-114.624,5.245-47.241-10.521-95.663-42.851-130.246l-6.299-6.33c-10.491-9.548-21.773-17.923-34.873-24.52-7.613,9.584-12.568,19.506-14.988,31.038l-.961,8.093c-2.821-.983-4.612-2.436-5.601-4.537M333.847,83.123" fill="#0e1f38"/><path d="M258.243,346.609c-6.796-6.501-13.565-12.01-21.316-16.838l-9.781-6.092-6.857-4.158-25.583-12.787c-9.034-4.515-18.128-8.139-26.642-13.648l-5.166-4.369c-3.664-3.098-3.172-8.52.203-11.832,3.226-3.166,7.073-5.329,11.353-6.897l13.998-5.129,14.167-5.048c8.129-2.896,21.997-9.286,20.672-17.692-1.209-7.67-11.668-13.112-18.605-16.894-12.145-6.621-25.121-10.666-38.271-15.333,10.396-.64,19.552,1.258,29.361,1.768l30.238,4.729,25.743,5.98,14.343,4.421c19.881,6.128,44.542,18.808,59.586,33.351,13.797,13.338,17.191,33.097,9.407,50.576-2.143,4.812-3.949,9.264-6.756,13.839l-5.449,8.881-8.871,12.841c-8.046,10.232-16.758,19.539-26.777,27.857l-9.159,6.563c-2.51-13.865-9.61-24.306-19.839-34.09Z" fill="#1f8a8f"/><path d="M194.407,89.946l-3.791,4.346c-12.992,14.891-18.299,36.544-12.915,55.694,1.574,5.6,3.154,10.913,7.147,15.785.909-8.909,6.989-24.002,6.989-24.002,0,0-.362-8.263,2.439-14.629l.922-2.265c.094,2.081.485,7.851,1.829,9.723,3.799-5.482,7.438-10.26,11.844-14.883.778-6.978,3.158-13.493,7.235-19.25-.297,4.565-.751,8.246.611,12.283l8.061-6.879c4.064-3.468,8.271-6.362,12.591-9.06.803.98,1.926,1.15,2.931,1.684l8.599,4.473c-14.79,27.351-6.907,60.742,18.034,79.244,2.775,2.059,5.608,3.831,8.942,5.254-.798-2.285-1.39-3.825-2.16-5.6-3.223-7.431-4.292-15.281-5.562-23.216-3.927-2.144-7.39-6.412-7.849-11.082,2.016,2.127,4.602,4.634,7.306,4.771-.418-6.132-.343-11.549.171-17.45-3.939-2.495-6.58-8.775-5.826-13.339l.671,1.557c.824,2.203,2.985,4.022,5.806,5.005l.873-7.239c13.929,15.207,21.77,36.483,22.001,57.183l.002,1.503.004,2.331-.005.556c.014.206.021.666,0,.887l-.081,1.051c-.773,12.729-4.099,25.236-10.24,36.91-19.288-7.202-38.889-12.491-59.318-15.804-17.393-2.821-34.252-4.946-51.805-5.791l-20.059-.173-26.42-13.822-12.026-6.158c.522-47.518,36.185-85.722,83.05-89.598Z" fill="#ea5a2a"/><path d="M549.128,103.484c10.013,0,19.05,1.642,27.108,4.925,8.058,3.283,14.932,7.935,20.62,13.955,5.688,6.02,10.043,13.195,13.065,21.525,3.021,8.331,4.532,17.573,4.532,27.727,0,9.425-1.511,18.181-4.532,26.267-3.022,8.088-7.348,15.141-12.977,21.16-5.63,6.02-12.414,10.717-20.354,14.092-7.94,3.375-16.858,5.062-26.753,5.062-10.014,0-19.021-1.642-27.02-4.925s-14.857-7.935-20.575-13.955c-5.719-6.02-10.088-13.193-13.109-21.524-3.022-8.33-4.533-17.572-4.533-27.727,0-9.424,1.495-18.18,4.488-26.268,2.991-8.086,7.302-15.141,12.932-21.16,5.629-6.02,12.413-10.717,20.354-14.091,7.939-3.375,16.856-5.062,26.753-5.062ZM579.08,192.229c0-8.086-.682-15.93-2.044-23.532-1.363-7.6-3.244-14.668-5.644-21.206-2.4-6.536-5.171-12.236-8.311-17.102-3.142-4.864-6.503-8.679-10.088-11.446-3.586-2.766-7.243-4.15-10.977-4.15-4.504,0-8.385,1.354-11.644,4.059-3.259,2.707-5.763,6.628-7.51,11.766-1.749,5.139-2.622,11.417-2.622,18.834,0,8.149.681,16.022,2.044,23.623,1.362,7.602,3.244,14.654,5.645,21.16,2.399,6.507,5.169,12.208,8.31,17.101,3.141,4.896,6.502,8.727,10.088,11.492,3.585,2.768,7.213,4.15,10.888,4.15,4.622,0,8.547-1.353,11.776-4.059,3.229-2.705,5.718-6.643,7.466-11.812,1.747-5.167,2.622-11.461,2.622-18.88Z" fill="#0e1f38"/><path d="M633.919,208.555v-38.307c0-1.763-.237-3.024-.711-3.785-.476-.76-1.244-1.261-2.312-1.505l-3.288-.456c-1.186-.365-2.03-.881-2.533-1.551-.504-.668-.755-1.519-.755-2.554,0-1.277.34-2.28,1.021-3.01.681-.729,1.94-1.459,3.777-2.189l18.043-7.023c2.784-1.095,4.991-1.854,6.621-2.28,1.629-.425,3.036-.638,4.222-.638,2.43,0,4.251.654,5.467,1.961,1.213,1.308,1.821,2.996,1.821,5.062v51.714c0,4.621,1.066,8.071,3.2,10.352,2.133,2.28,5.035,3.421,8.71,3.421,2.311,0,4.74-.517,7.288-1.551,2.547-1.033,5.036-2.613,7.466-4.743l3.289-3.01,4.799,5.107-3.11,2.828c-7.941,7.661-14.843,13.013-20.709,16.052-5.866,3.04-11.318,4.561-16.354,4.561-7.764,0-14.029-2.613-18.799-7.844-4.77-5.229-7.154-12.099-7.154-20.612ZM691.779,218.587v-2.736l-1.066-.182v-45.421c0-1.763-.237-3.024-.711-3.785-.475-.76-1.215-1.261-2.222-1.505l-3.378-.456c-1.126-.365-1.955-.881-2.488-1.551-.533-.668-.8-1.519-.8-2.554,0-1.277.34-2.28,1.021-3.01.681-.729,1.97-1.459,3.866-2.189l17.954-7.023c2.666-1.033,4.813-1.779,6.443-2.234,1.629-.456,3.214-.684,4.755-.684,2.252,0,3.97.654,5.155,1.961,1.185,1.308,1.777,2.996,1.777,5.062v65.304c0,2.188.223,3.755.667,4.697.444.943,1.169,1.627,2.178,2.052l2.577.912c1.303.487,2.236,1.126,2.8,1.916.562.79.845,1.732.845,2.827,0,1.459-.476,2.6-1.422,3.42-.949.821-2.431,1.231-4.444,1.231h-19.731c-3.732,0-6.963-1.551-9.688-4.651-2.727-3.102-4.089-6.9-4.089-11.401Z" fill="#0e1f38"/><path d="M746.707,157.844l-3.377-1.186c-1.422-.486-2.444-1.109-3.066-1.87-.622-.759-.934-1.687-.934-2.782,0-1.459.503-2.583,1.512-3.375,1.007-.79,2.311-1.186,3.91-1.186h5.155c1.244,0,2.355-.288,3.333-.867.978-.577,2.117-1.626,3.422-3.146l11.999-14.502c1.6-1.824,3.11-3.161,4.532-4.013,1.422-.851,2.813-1.277,4.178-1.277,1.48,0,2.636.501,3.466,1.505.829,1.003,1.244,2.417,1.244,4.241v75.611c0,4.317.785,7.615,2.355,9.896,1.569,2.28,3.777,3.42,6.622,3.42,2.191,0,3.896-.516,5.11-1.551,1.214-1.033,2.191-2.203,2.933-3.511.74-1.308,1.48-2.478,2.223-3.512.74-1.033,1.762-1.551,3.066-1.551,1.007,0,1.821.365,2.443,1.095.623.729.934,1.977.934,3.739,0,4.318-1.274,8.286-3.821,11.902-2.549,3.619-6.06,6.508-10.532,8.665-4.475,2.157-9.586,3.238-15.332,3.238-8.652,0-15.376-2.175-20.176-6.521s-7.199-10.899-7.199-19.655v-47.063c0-1.702-.312-2.949-.934-3.74-.622-.79-1.644-1.459-3.066-2.006ZM770.616,158.482v-11.036h31.019c1.6,0,2.873.351,3.822,1.049.947.7,1.422,1.719,1.422,3.055,0,1.947-.934,3.588-2.8,4.925-1.866,1.338-4.933,2.006-9.199,2.006h-24.264Z" fill="#0e1f38"/><path d="M885.987,210.53c-1.381,4.086-1.885,6.947-1.513,8.581.37,1.635,1.221,2.452,2.549,2.452.742,0,1.539-.231,2.389-.694.849-.463,1.912-1.267,3.186-2.411,1.009-.926,1.845-1.498,2.51-1.717.663-.217,1.313-.163,1.951.164.742.382,1.127,1.104,1.154,2.166.026,1.062-.386,2.384-1.234,3.964-2.124,4.086-5.244,7.369-9.358,9.849-4.115,2.479-8.828,3.719-14.137,3.719-3.982,0-6.957-.873-8.92-2.616-1.966-1.743-2.975-4.235-3.027-7.478-.053-3.241.717-7.124,2.31-11.647l11.39-31.629c1.486-4.14,2.031-7.015,1.633-8.623-.398-1.607-1.262-2.411-2.589-2.411-.744,0-1.553.218-2.429.654-.876.437-1.925,1.254-3.146,2.452-1.009.927-1.845,1.485-2.509,1.676-.664.191-1.313.15-1.951-.123-.744-.381-1.129-1.104-1.154-2.166-.027-1.062.358-2.383,1.154-3.964,2.123-4.087,5.229-7.369,9.318-9.849,4.089-2.479,8.708-3.719,13.858-3.719,3.664,0,6.478.858,8.442,2.574,1.964,1.716,3.066,4.237,3.306,7.561.239,3.324-.491,7.438-2.19,12.341l-10.991,30.895ZM893.155,144c-4.194,0-7.395-1.089-9.597-3.27-2.204-2.179-3.199-4.822-2.987-7.928.16-2.452.996-4.767,2.509-6.947,1.514-2.179,3.585-3.936,6.213-5.271,2.628-1.334,5.694-2.002,9.199-2.002,4.406,0,7.618,1.117,9.637,3.351,2.018,2.235,2.92,4.904,2.708,8.009-.159,2.67-.995,5.067-2.509,7.192s-3.571,3.801-6.173,5.027c-2.602,1.226-5.603,1.839-9,1.839Z" fill="#ea5a2a"/><path d="M917.209,176.856c-.744-.381-1.129-1.104-1.155-2.166-.027-1.062.358-2.383,1.155-3.964,2.176-4.087,5.362-7.369,9.557-9.849,4.194-2.479,8.947-3.719,14.257-3.719,3.451,0,6.133.75,8.044,2.248,1.912,1.499,2.867,3.692,2.867,6.579,0,1.69-.358,3.625-1.075,5.803-.717,2.18-1.646,4.659-2.787,7.438-1.143,2.779-2.43,5.954-3.863,9.521-1.434,3.569-2.867,7.615-4.301,12.137l-1.115-2.533c2.974-7.792,6.345-14.316,10.115-19.575,3.77-5.257,7.686-9.481,11.748-12.668,4.062-3.188,8.084-5.476,12.066-6.865,3.982-1.389,7.646-2.084,10.991-2.084,4.725,0,8.123,1.05,10.194,3.146,2.07,2.098,3.092,5.014,3.066,8.745-.027,3.733-.916,8.132-2.668,13.2l-9.717,28.36c-1.434,4.087-1.951,6.947-1.554,8.582.398,1.635,1.234,2.452,2.509,2.452.797,0,1.619-.245,2.47-.735.849-.491,1.884-1.308,3.105-2.452,1.009-.926,1.845-1.498,2.509-1.717.664-.217,1.314-.163,1.951.164.743.437,1.128,1.172,1.155,2.206.026,1.036-.358,2.37-1.155,4.005-2.124,4.087-5.256,7.356-9.397,9.808-4.142,2.452-8.841,3.679-14.098,3.679-3.982,0-6.956-.858-8.92-2.575-1.965-1.716-3.001-4.194-3.106-7.438-.106-3.241.61-7.069,2.15-11.483l9.876-28.932c1.752-4.794,2.362-8.227,1.832-10.298-.531-2.07-2.098-3.106-4.699-3.106-1.965,0-4.142.654-6.53,1.962-2.39,1.308-4.833,3.228-7.328,5.762-2.496,2.534-4.886,5.681-7.168,9.44-2.283,3.76-4.301,8.091-6.053,12.995-1.062,3.105-1.939,5.694-2.628,7.765-.691,2.071-1.183,3.76-1.474,5.067-.293,1.308-.438,2.452-.438,3.433,0,1.526.252,2.875.757,4.046.504,1.172.757,2.548.757,4.127,0,2.779-1.581,5.014-4.739,6.702-3.159,1.688-7.474,2.534-12.942,2.534-4.142,0-6.664-1.5-7.566-4.495-.903-2.996-.318-7.383,1.752-13.159l12.584-35.716c1.486-4.14,2.031-7.015,1.633-8.623-.397-1.607-1.262-2.411-2.588-2.411-.744,0-1.554.218-2.43.654-.876.437-1.925,1.254-3.146,2.452-1.01.927-1.846,1.485-2.509,1.676-.665.191-1.314.15-1.951-.123Z" fill="#ea5a2a"/><path d="M1085.908,229.35c0,1.642-.52,2.935-1.555,3.876-1.038.943-2.683,1.414-4.934,1.414h-28.175c-2.192,0-3.837-.471-4.933-1.414-1.097-.941-1.645-2.203-1.645-3.785,0-1.154.281-2.143.845-2.964.562-.821,1.556-1.626,2.978-2.417l2.311-1.186c1.896-1.033,3.347-2.355,4.355-3.968,1.007-1.61,2.133-4.453,3.377-8.527l25.598-82.178c.947-3.161,1.258-5.427.934-6.795-.327-1.368-1.556-2.508-3.688-3.42-1.66-.73-2.831-1.551-3.511-2.463-.683-.912-1.022-2.036-1.022-3.375,0-1.642.547-2.918,1.645-3.831,1.096-.912,2.769-1.368,5.021-1.368h50.395c2.251,0,3.911.456,4.978,1.368s1.6,2.189,1.6,3.831c0,1.399-.355,2.554-1.066,3.466s-1.777,1.673-3.2,2.28c-1.541.608-2.459,1.445-2.755,2.508-.297,1.064-.06,2.782.711,5.153l27.286,86.191c1.066,3.588,2.118,6.218,3.155,7.889,1.036,1.674,2.474,2.873,4.311,3.603,1.896.912,3.185,1.811,3.866,2.691.681.882,1.022,2.021,1.022,3.42,0,1.642-.549,2.935-1.645,3.876-1.097.943-2.771,1.414-5.021,1.414h-43.106c-2.253,0-3.911-.471-4.978-1.414-1.066-.941-1.6-2.234-1.6-3.876,0-1.277.355-2.326,1.066-3.146.711-.821,1.777-1.535,3.199-2.144l4-1.186c1.54-.607,2.235-1.505,2.089-2.69-.148-1.186-.638-3.086-1.467-5.701l-28.708-94.034,3.377-2.189-27.997,90.204c-.889,2.798-1.348,5.062-1.377,6.795-.031,1.733.474,3.179,1.511,4.333,1.036,1.155,2.681,2.312,4.933,3.466l3.645,1.186c1.303.608,2.324,1.292,3.066,2.052.74.762,1.11,1.778,1.11,3.056ZM1073.553,181.466h52.262l.267,11.675h-52.973l.444-11.675Z" fill="#0e1f38"/><path d="M1221.092,155.016c-3.792,0-6.681.898-8.665,2.691-1.986,1.794-2.978,4.029-2.978,6.704,0,1.642.324,3.146.978,4.515.651,1.368,2.014,2.615,4.088,3.74,2.074,1.125,5.214,2.113,9.422,2.964,10.132,1.947,17.879,4.424,23.242,7.434,5.361,3.01,9.065,6.537,11.109,10.58,2.044,4.044,3.066,8.588,3.066,13.635,0,9.183-3.142,16.434-9.421,21.753-6.281,5.321-15.496,7.98-27.642,7.98-4.208,0-7.614-.351-10.222-1.049-2.607-.699-4.726-1.397-6.354-2.098-1.631-.698-3.066-1.049-4.311-1.049-1.364,0-2.475.351-3.333,1.049-.859.7-1.704,1.414-2.533,2.144-.83.729-1.897,1.095-3.199,1.095s-2.282-.381-2.934-1.141c-.652-.761-1.244-2.111-1.777-4.059l-5.333-17.146c-.771-2.736-.993-4.91-.666-6.521.324-1.61,1.288-2.721,2.888-3.329,1.658-.607,3.111-.623,4.355-.046,1.244.579,2.399,1.749,3.467,3.512,2.666,4.378,5.495,7.935,8.487,10.671,2.991,2.736,6.133,4.759,9.422,6.065,3.288,1.309,6.65,1.961,10.088,1.961,4.562,0,7.968-.912,10.221-2.736,2.251-1.824,3.377-4.255,3.377-7.296,0-1.885-.459-3.542-1.377-4.972-.92-1.428-2.727-2.735-5.422-3.922-2.697-1.186-6.682-2.325-11.954-3.42-8.119-1.642-14.576-3.876-19.376-6.704-4.8-2.827-8.252-6.277-10.354-10.352-2.104-4.073-3.155-8.847-3.155-14.319,0-5.715,1.48-10.701,4.444-14.958,2.962-4.255,7.021-7.555,12.176-9.896,5.155-2.34,11.11-3.512,17.865-3.512,4.324,0,7.777.365,10.354,1.095,2.577.729,4.68,1.475,6.311,2.234,1.629.761,3.214,1.14,4.755,1.14,1.48,0,2.711-.379,3.688-1.14.978-.759,1.911-1.505,2.8-2.234.889-.73,1.984-1.095,3.288-1.095,1.125,0,2.059.411,2.8,1.231.74.821,1.289,2.205,1.645,4.15l3.556,16.508c.474,2.677.547,4.729.222,6.157-.326,1.429-1.26,2.448-2.8,3.055-1.6.67-3.008.639-4.222-.091-1.215-.73-2.475-2.066-3.777-4.013-3.853-6.262-8.074-10.656-12.665-13.18-4.593-2.522-9.141-3.785-13.644-3.785Z" fill="#0e1f38"/><path d="M1313.882,152.28v65.304c0,2.188.222,3.755.666,4.697.444.943,1.17,1.627,2.178,2.052l2.577.912c1.303.487,2.236,1.126,2.8,1.916.562.79.845,1.732.845,2.827,0,1.459-.475,2.6-1.422,3.42-.949.821-2.431,1.231-4.444,1.231h-37.773c-2.075,0-3.57-.41-4.488-1.231-.92-.82-1.378-1.961-1.378-3.42,0-1.095.28-2.037.844-2.827.562-.79,1.467-1.429,2.711-1.916l2.756-.912c.947-.425,1.645-1.108,2.089-2.052.444-.942.666-2.477.666-4.606v-47.427c0-1.763-.237-3.024-.711-3.785-.475-.76-1.244-1.261-2.311-1.505l-3.289-.456c-1.186-.365-2.03-.881-2.533-1.551-.504-.668-.755-1.519-.755-2.554,0-1.277.34-2.28,1.021-3.01.681-.729,1.94-1.459,3.777-2.189l18.043-7.023c2.784-1.095,4.991-1.87,6.621-2.326s3.036-.684,4.223-.684c2.429,0,4.251.67,5.466,2.006,1.214,1.338,1.822,3.042,1.822,5.108ZM1296.194,134.221c-5.688,0-10.221-1.428-13.599-4.287-3.377-2.857-5.066-6.658-5.066-11.401,0-4.802,1.689-8.587,5.066-11.355,3.378-2.766,7.91-4.15,13.599-4.15,5.747,0,10.311,1.399,13.688,4.195,3.378,2.797,5.066,6.567,5.066,11.31s-1.688,8.544-5.066,11.401c-3.377,2.859-7.94,4.287-13.688,4.287Z" fill="#0e1f38"/><path d="M1333.257,215.395c0-7.965,3.495-14.334,10.487-19.107,6.991-4.773,16.769-7.16,29.331-7.16,3.673,0,6.946.289,9.82.866,2.874.579,5.289,1.384,7.244,2.417l-2.488,6.931c-1.66-.85-3.275-1.488-4.845-1.914-1.57-.425-3.304-.639-5.199-.639-3.91,0-6.977,1.14-9.199,3.42-2.222,2.28-3.333,5.488-3.333,9.622,0,4.195.992,7.403,2.978,9.623,1.984,2.22,4.606,3.329,7.866,3.329,2.429,0,4.769-.578,7.021-1.733,2.251-1.154,4.058-2.675,5.422-4.561l2.044,6.294c-3.021,4.56-7.274,8.071-12.754,10.534-5.481,2.462-11.304,3.693-17.465,3.693-8.06,0-14.562-2.021-19.51-6.065-4.947-4.043-7.421-9.226-7.421-15.551ZM1387.118,222.509v-2.006l-2.223-.183v-56.64c0-3.284-.844-5.867-2.533-7.753-1.688-1.884-4.015-2.827-6.977-2.827-2.488,0-4.504.579-6.044,1.733-1.541,1.156-2.311,2.585-2.311,4.287v9.029c0,4.378-1.438,7.769-4.311,10.17-2.875,2.403-6.978,3.603-12.311,3.603-4.563,0-7.985-1.033-10.266-3.101-2.281-2.066-3.422-4.925-3.422-8.573,0-3.952,1.658-7.858,4.978-11.72,3.317-3.861,8.266-7.069,14.843-9.623s14.783-3.831,24.62-3.831c11.731,0,20.456,2.326,26.175,6.978,5.718,4.651,8.577,10.931,8.577,18.834v45.513c0,1.399.311,2.508.933,3.329.622.82,1.556,1.231,2.8,1.231,1.125,0,2-.304,2.622-.912.622-.607,1.2-1.187,1.733-1.733.355-.425.74-.789,1.155-1.095.414-.303.889-.456,1.422-.456.889,0,1.54.335,1.955,1.004.414.67.623,1.521.623,2.554,0,2.371-.831,4.85-2.489,7.434-1.659,2.585-4.119,4.773-7.377,6.566-3.259,1.793-7.318,2.69-12.177,2.69-5.926,0-10.74-1.322-14.442-3.967-3.704-2.646-5.555-6.157-5.555-10.535Z" fill="#0e1f38"/><path d="M497.512,327.223v-32.392h-12.482v-5.134h30.411v5.134h-12.482v32.392h-5.446Z" fill="#0e1f38"/><path d="M517.005,327.223v-28.144h4.847v6.827l-.678-.886c.348-.903.799-1.733,1.355-2.489.556-.756,1.198-1.376,1.929-1.863.712-.521,1.507-.925,2.384-1.211.877-.287,1.776-.461,2.697-.521s1.807-.013,2.658.144v5.107c-.921-.243-1.941-.312-3.062-.209-1.121.104-2.15.461-3.089,1.068-.886.573-1.585,1.269-2.098,2.085-.513.817-.882,1.725-1.107,2.724s-.339,2.055-.339,3.166v14.202h-5.498Z" fill="#0e1f38"/><path d="M544.314,328.005c-2.085,0-3.831-.388-5.238-1.16s-2.472-1.798-3.192-3.075c-.721-1.276-1.081-2.68-1.081-4.208,0-1.425.251-2.676.756-3.753.503-1.077,1.25-1.993,2.24-2.749.991-.756,2.207-1.368,3.648-1.837,1.251-.365,2.667-.687,4.248-.965,1.581-.277,3.244-.538,4.99-.781s3.479-.486,5.199-.729l-1.98,1.094c.034-2.206-.431-3.844-1.395-4.912s-2.619-1.603-4.964-1.603c-1.478,0-2.832.344-4.065,1.029-1.234.687-2.094,1.82-2.58,3.401l-5.082-1.563c.695-2.415,2.021-4.335,3.975-5.76,1.954-1.424,4.556-2.137,7.805-2.137,2.519,0,4.712.43,6.58,1.29,1.867.86,3.235,2.22,4.104,4.078.451.921.729,1.894.834,2.919.104,1.025.156,2.128.156,3.31v17.329h-4.821v-6.437l.938.834c-1.164,2.154-2.646,3.757-4.443,4.808s-4.009,1.577-6.632,1.577ZM545.278,323.548c1.546,0,2.875-.273,3.987-.82,1.111-.547,2.006-1.246,2.684-2.098s1.121-1.737,1.329-2.658c.295-.834.465-1.772.509-2.814.043-1.042.064-1.876.064-2.502l1.772.651c-1.72.261-3.283.495-4.69.704-1.407.208-2.681.413-3.818.612-1.138.2-2.149.438-3.036.717-.747.261-1.411.573-1.993.938-.582.365-1.042.809-1.381,1.329-.339.521-.509,1.156-.509,1.902,0,.73.183,1.403.548,2.02.364.617.921,1.108,1.668,1.473.746.365,1.702.547,2.866.547Z" fill="#0e1f38"/><path d="M572.614,327.223l-10.216-28.144h5.499l7.479,21.316,7.479-21.316h5.498l-10.215,28.144h-5.524Z" fill="#0e1f38"/><path d="M604.485,328.005c-2.798,0-5.251-.613-7.362-1.838-2.11-1.225-3.752-2.936-4.925-5.134-1.173-2.197-1.759-4.746-1.759-7.648,0-3.074.577-5.741,1.732-8,1.155-2.258,2.767-4.004,4.834-5.237s4.474-1.851,7.219-1.851c2.866,0,5.307.665,7.322,1.993,2.016,1.329,3.522,3.219,4.521,5.668.999,2.45,1.395,5.36,1.186,8.73h-5.446v-1.98c-.035-3.267-.656-5.682-1.863-7.245s-3.045-2.345-5.512-2.345c-2.728,0-4.777.859-6.149,2.58-1.373,1.72-2.059,4.204-2.059,7.452,0,3.093.686,5.485,2.059,7.18,1.372,1.693,3.353,2.541,5.941,2.541,1.702,0,3.175-.387,4.417-1.16,1.242-.772,2.211-1.88,2.905-3.322l5.343,1.693c-1.095,2.52-2.754,4.47-4.978,5.851s-4.7,2.072-7.427,2.072ZM594.452,314.689v-4.248h20.092v4.248h-20.092Z" fill="#0e1f38"/><path d="M623.612,327.223v-38.307h5.446v38.307h-5.446Z" fill="#0e1f38"/><path d="M662.648,328.005c-2.52,0-4.839-.439-6.958-1.316s-3.961-2.158-5.524-3.844c-1.563-1.685-2.779-3.735-3.648-6.15-.868-2.414-1.303-5.159-1.303-8.234,0-4.048.738-7.526,2.215-10.437s3.526-5.15,6.15-6.724c2.623-1.572,5.646-2.358,9.068-2.358,4.413,0,7.936,1.025,10.567,3.075s4.425,4.882,5.381,8.495l-5.524.99c-.765-2.241-1.998-4.03-3.7-5.368-1.703-1.337-3.84-2.015-6.411-2.032-2.658-.018-4.869.573-6.632,1.771-1.764,1.199-3.088,2.88-3.974,5.043-.887,2.163-1.338,4.678-1.355,7.544s.417,5.373,1.303,7.519c.887,2.146,2.22,3.817,4,5.016,1.781,1.199,4,1.808,6.658,1.824,2.137.035,3.975-.36,5.512-1.186s2.758-2.036,3.661-3.635,1.485-3.562,1.746-5.89h-7.297v-4.378h13.082c.035.312.061.726.078,1.237.018.513.026.839.026.978,0,3.475-.669,6.576-2.007,9.304s-3.283,4.868-5.837,6.423-5.646,2.333-9.277,2.333Z" fill="#0e1f38"/><path d="M692.928,328.005c-2.085,0-3.831-.388-5.238-1.16s-2.472-1.798-3.192-3.075c-.721-1.276-1.081-2.68-1.081-4.208,0-1.425.251-2.676.756-3.753.503-1.077,1.25-1.993,2.24-2.749.991-.756,2.207-1.368,3.648-1.837,1.251-.365,2.667-.687,4.248-.965,1.581-.277,3.244-.538,4.99-.781s3.479-.486,5.199-.729l-1.98,1.094c.034-2.206-.431-3.844-1.395-4.912s-2.619-1.603-4.964-1.603c-1.478,0-2.832.344-4.065,1.029-1.234.687-2.094,1.82-2.58,3.401l-5.082-1.563c.695-2.415,2.021-4.335,3.975-5.76,1.954-1.424,4.556-2.137,7.805-2.137,2.519,0,4.712.43,6.58,1.29,1.867.86,3.235,2.22,4.104,4.078.451.921.729,1.894.834,2.919.104,1.025.156,2.128.156,3.31v17.329h-4.821v-6.437l.938.834c-1.164,2.154-2.646,3.757-4.443,4.808s-4.009,1.577-6.632,1.577ZM693.892,323.548c1.546,0,2.875-.273,3.987-.82,1.111-.547,2.006-1.246,2.684-2.098s1.121-1.737,1.329-2.658c.295-.834.465-1.772.509-2.814.043-1.042.064-1.876.064-2.502l1.772.651c-1.72.261-3.283.495-4.69.704-1.407.208-2.681.413-3.818.612-1.138.2-2.149.438-3.036.717-.747.261-1.411.573-1.993.938-.582.365-1.042.809-1.381,1.329-.339.521-.509,1.156-.509,1.902,0,.73.183,1.403.548,2.02.364.617.921,1.108,1.668,1.473.746.365,1.702.547,2.866.547Z" fill="#0e1f38"/><path d="M716.903,339.732l5.446-14.828.078,4.378-12.274-30.202h5.682l9.173,23.322h-1.668l8.756-23.322h5.524l-15.531,40.652h-5.186Z" fill="#0e1f38"/><path d="M766.493,317.763c-1.32,0-2.515-.304-3.583-.911-1.068-.608-1.92-1.438-2.554-2.489-.635-1.051-.951-2.236-.951-3.557s.316-2.511.951-3.57c.634-1.06,1.485-1.89,2.554-2.488,1.068-.6,2.263-.899,3.583-.899,1.233,0,2.366.304,3.4.912,1.033.608,1.858,1.438,2.476,2.488.616,1.052.925,2.237.925,3.558s-.309,2.506-.925,3.557c-.617,1.052-1.442,1.881-2.476,2.489-1.034.607-2.167.911-3.4.911Z" fill="#ea5a2a"/><path d="M798.31,327.223v-37.525h14.749c2.38,0,4.378.486,5.994,1.46,1.615.973,2.831,2.228,3.648,3.765.816,1.538,1.225,3.158,1.225,4.86,0,2.067-.509,3.84-1.524,5.316-1.017,1.477-2.385,2.484-4.104,3.022l-.052-1.276c2.397.591,4.238,1.741,5.524,3.452,1.285,1.712,1.928,3.705,1.928,5.98,0,2.207-.438,4.127-1.315,5.76-.878,1.633-2.154,2.905-3.831,3.817s-3.705,1.368-6.085,1.368h-16.156ZM803.835,305.021h9.146c1.008,0,1.916-.204,2.724-.612s1.45-.999,1.928-1.772c.479-.772.717-1.707.717-2.802,0-1.459-.486-2.657-1.459-3.596-.974-.938-2.276-1.407-3.909-1.407h-9.146v10.189ZM803.835,322.037h9.798c1.233,0,2.341-.234,3.323-.704.981-.469,1.754-1.142,2.319-2.02.563-.877.847-1.924.847-3.14,0-1.129-.248-2.15-.743-3.062s-1.207-1.633-2.137-2.163c-.93-.529-2.02-.794-3.271-.794h-10.137v11.883Z" fill="#0e1f38"/><path d="M843.367,328.005c-2.798,0-5.251-.613-7.362-1.838-2.11-1.225-3.752-2.936-4.925-5.134-1.173-2.197-1.759-4.746-1.759-7.648,0-3.074.577-5.741,1.732-8,1.155-2.258,2.767-4.004,4.834-5.237s4.474-1.851,7.219-1.851c2.866,0,5.307.665,7.322,1.993,2.016,1.329,3.522,3.219,4.521,5.668.999,2.45,1.395,5.36,1.186,8.73h-5.446v-1.98c-.035-3.267-.656-5.682-1.863-7.245s-3.045-2.345-5.512-2.345c-2.728,0-4.777.859-6.149,2.58-1.373,1.72-2.059,4.204-2.059,7.452,0,3.093.686,5.485,2.059,7.18,1.372,1.693,3.353,2.541,5.941,2.541,1.702,0,3.175-.387,4.417-1.16,1.242-.772,2.211-1.88,2.905-3.322l5.343,1.693c-1.095,2.52-2.754,4.47-4.978,5.851s-4.7,2.072-7.427,2.072ZM833.334,314.689v-4.248h20.092v4.248h-20.092Z" fill="#0e1f38"/><path d="M881.438,327.223v-15.505l-12.69-22.021h6.358l9.095,15.766,9.095-15.766h6.358l-12.69,22.021v15.505h-5.525Z" fill="#0e1f38"/><path d="M911.355,328.005c-2.814,0-5.256-.635-7.322-1.902-2.068-1.269-3.662-3.019-4.782-5.251-1.121-2.232-1.681-4.809-1.681-7.727,0-2.937.573-5.521,1.72-7.753s2.753-3.97,4.821-5.212c2.066-1.242,4.481-1.863,7.244-1.863,2.814,0,5.255.635,7.322,1.902,2.067,1.269,3.666,3.015,4.795,5.238s1.694,4.786,1.694,7.688c0,2.936-.569,5.521-1.707,7.752-1.138,2.232-2.741,3.979-4.808,5.238-2.068,1.26-4.5,1.89-7.297,1.89ZM911.355,322.871c2.692,0,4.703-.908,6.032-2.724s1.994-4.156,1.994-7.022c0-2.937-.674-5.286-2.02-7.05-1.347-1.763-3.349-2.645-6.007-2.645-1.824,0-3.327.413-4.509,1.237-1.181.826-2.059,1.964-2.632,3.414-.573,1.451-.859,3.132-.859,5.043,0,2.953.678,5.315,2.032,7.088,1.355,1.771,3.345,2.658,5.968,2.658Z" fill="#0e1f38"/><path d="M941.505,327.979c-1.945,0-3.578-.312-4.898-.938-1.32-.625-2.394-1.446-3.219-2.462-.825-1.017-1.455-2.124-1.889-3.323-.435-1.198-.73-2.371-.887-3.518s-.234-2.154-.234-3.023v-15.635h5.524v13.837c0,1.095.092,2.22.273,3.375.183,1.155.53,2.228,1.043,3.218.512.99,1.233,1.79,2.163,2.397.929.608,2.141.912,3.635.912.973,0,1.894-.16,2.763-.481.868-.321,1.629-.838,2.28-1.551.651-.712,1.163-1.65,1.537-2.814.373-1.164.561-2.58.561-4.248l3.388,1.277c0,2.554-.479,4.808-1.434,6.763-.955,1.954-2.328,3.479-4.117,4.573-1.79,1.094-3.952,1.642-6.489,1.642ZM950.808,327.223v-8.131h-.651v-20.013h5.498v28.144h-4.847Z" fill="#0e1f38"/><path d="M987.759,317.763c-1.32,0-2.515-.304-3.583-.911-1.068-.608-1.92-1.438-2.554-2.489-.635-1.051-.951-2.236-.951-3.557s.316-2.511.951-3.57c.634-1.06,1.485-1.89,2.554-2.488,1.068-.6,2.263-.899,3.583-.899,1.233,0,2.366.304,3.4.912,1.033.608,1.858,1.438,2.476,2.488.616,1.052.925,2.237.925,3.558s-.309,2.506-.925,3.557c-.617,1.052-1.442,1.881-2.476,2.489-1.034.607-2.167.911-3.4.911Z" fill="#ea5a2a"/><path d="M1019.577,327.223v-37.525h14.749c2.38,0,4.378.486,5.994,1.46,1.615.973,2.831,2.228,3.648,3.765.816,1.538,1.225,3.158,1.225,4.86,0,2.067-.509,3.84-1.524,5.316-1.017,1.477-2.385,2.484-4.104,3.022l-.052-1.276c2.397.591,4.238,1.741,5.524,3.452,1.285,1.712,1.928,3.705,1.928,5.98,0,2.207-.438,4.127-1.315,5.76-.878,1.633-2.154,2.905-3.831,3.817s-3.705,1.368-6.085,1.368h-16.156ZM1025.101,305.021h9.146c1.008,0,1.916-.204,2.724-.612s1.45-.999,1.928-1.772c.479-.772.717-1.707.717-2.802,0-1.459-.486-2.657-1.459-3.596-.974-.938-2.276-1.407-3.909-1.407h-9.146v10.189ZM1025.101,322.037h9.798c1.233,0,2.341-.234,3.323-.704.981-.469,1.754-1.142,2.319-2.02.563-.877.847-1.924.847-3.14,0-1.129-.248-2.15-.743-3.062s-1.207-1.633-2.137-2.163c-.93-.529-2.02-.794-3.271-.794h-10.137v11.883Z" fill="#0e1f38"/><path d="M1064.634,328.005c-2.798,0-5.251-.613-7.362-1.838-2.11-1.225-3.752-2.936-4.925-5.134-1.173-2.197-1.759-4.746-1.759-7.648,0-3.074.577-5.741,1.732-8,1.155-2.258,2.767-4.004,4.834-5.237s4.474-1.851,7.219-1.851c2.866,0,5.307.665,7.322,1.993,2.016,1.329,3.522,3.219,4.521,5.668.999,2.45,1.395,5.36,1.186,8.73h-5.446v-1.98c-.035-3.267-.656-5.682-1.863-7.245s-3.045-2.345-5.512-2.345c-2.728,0-4.777.859-6.149,2.58-1.373,1.72-2.059,4.204-2.059,7.452,0,3.093.686,5.485,2.059,7.18,1.372,1.693,3.353,2.541,5.941,2.541,1.702,0,3.175-.387,4.417-1.16,1.242-.772,2.211-1.88,2.905-3.322l5.343,1.693c-1.095,2.52-2.754,4.47-4.978,5.851s-4.7,2.072-7.427,2.072ZM1054.6,314.689v-4.248h20.092v4.248h-20.092Z" fill="#0e1f38"/><path d="M1083.761,327.223v-38.307h5.446v38.307h-5.446Z" fill="#0e1f38"/><path d="M1109.247,328.005c-2.814,0-5.256-.635-7.322-1.902-2.068-1.269-3.662-3.019-4.782-5.251-1.121-2.232-1.681-4.809-1.681-7.727,0-2.937.573-5.521,1.72-7.753s2.753-3.97,4.821-5.212c2.066-1.242,4.481-1.863,7.244-1.863,2.814,0,5.255.635,7.322,1.902,2.067,1.269,3.666,3.015,4.795,5.238s1.694,4.786,1.694,7.688c0,2.936-.569,5.521-1.707,7.752-1.138,2.232-2.741,3.979-4.808,5.238-2.068,1.26-4.5,1.89-7.297,1.89ZM1109.247,322.871c2.692,0,4.703-.908,6.032-2.724s1.994-4.156,1.994-7.022c0-2.937-.674-5.286-2.02-7.05-1.347-1.763-3.349-2.645-6.007-2.645-1.824,0-3.327.413-4.509,1.237-1.181.826-2.059,1.964-2.632,3.414-.573,1.451-.859,3.132-.859,5.043,0,2.953.678,5.315,2.032,7.088,1.355,1.771,3.345,2.658,5.968,2.658Z" fill="#0e1f38"/><path d="M1128.764,327.223v-28.144h4.873v8.13h.651v20.014h-5.524ZM1148.544,327.223v-13.838c0-1.094-.092-2.219-.273-3.374-.183-1.155-.53-2.229-1.043-3.219s-1.233-1.789-2.163-2.397c-.93-.607-2.141-.912-3.635-.912-.974,0-1.894.161-2.763.482-.868.321-1.628.838-2.28,1.551-.651.712-1.164,1.65-1.537,2.814-.374,1.164-.561,2.579-.561,4.247l-3.388-1.276c0-2.554.478-4.809,1.434-6.763.955-1.954,2.328-3.479,4.117-4.573s3.952-1.642,6.489-1.642c1.945,0,3.578.312,4.898.938,1.32.626,2.394,1.446,3.219,2.463s1.455,2.124,1.889,3.322c.435,1.199.73,2.372.887,3.519s.234,2.154.234,3.022v15.636h-5.524Z" fill="#0e1f38"/><path d="M1172.023,328.005c-2.624,0-4.887-.652-6.789-1.955s-3.37-3.079-4.403-5.329c-1.034-2.249-1.551-4.781-1.551-7.596,0-2.832.521-5.364,1.563-7.597,1.042-2.232,2.523-3.995,4.443-5.29,1.919-1.294,4.199-1.941,6.84-1.941,2.658,0,4.895.647,6.711,1.941,1.814,1.295,3.188,3.062,4.117,5.303.929,2.241,1.394,4.77,1.394,7.584s-.469,5.342-1.407,7.583c-.938,2.241-2.319,4.018-4.143,5.329-1.824,1.312-4.083,1.968-6.775,1.968ZM1172.439,340.513c-1.511,0-2.975-.234-4.391-.703-1.416-.47-2.706-1.16-3.87-2.072s-2.128-2.037-2.893-3.374l5.03-2.555c.607,1.199,1.476,2.076,2.605,2.633,1.129.556,2.319.834,3.57.834,1.546,0,2.866-.274,3.961-.821s1.924-1.368,2.488-2.463c.564-1.094.838-2.449.821-4.065v-7.869h.651v-20.978h4.821v28.899c0,.747-.026,1.459-.078,2.137-.053.678-.148,1.355-.287,2.032-.399,1.894-1.159,3.457-2.28,4.691-1.12,1.233-2.545,2.153-4.273,2.762s-3.688.912-5.877.912ZM1172.778,323.079c1.789,0,3.249-.426,4.378-1.276,1.13-.852,1.955-2.024,2.476-3.519.521-1.494.782-3.214.782-5.159s-.265-3.666-.795-5.16-1.347-2.658-2.449-3.492c-1.104-.834-2.507-1.251-4.209-1.251-1.807,0-3.292.443-4.456,1.329-1.164.887-2.028,2.076-2.593,3.57s-.847,3.162-.847,5.004c0,1.858.282,3.54.847,5.042.564,1.503,1.416,2.697,2.554,3.583,1.138.887,2.575,1.329,4.312,1.329Z" fill="#0e1f38"/><path d="M1212.309,327.223v-32.392h-12.482v-5.134h30.411v5.134h-12.482v32.392h-5.446Z" fill="#0e1f38"/><path d="M1242.46,328.005c-2.814,0-5.256-.635-7.322-1.902-2.068-1.269-3.662-3.019-4.782-5.251-1.121-2.232-1.681-4.809-1.681-7.727,0-2.937.573-5.521,1.72-7.753s2.753-3.97,4.821-5.212c2.066-1.242,4.481-1.863,7.244-1.863,2.814,0,5.255.635,7.322,1.902,2.067,1.269,3.666,3.015,4.795,5.238s1.694,4.786,1.694,7.688c0,2.936-.569,5.521-1.707,7.752-1.138,2.232-2.741,3.979-4.808,5.238-2.068,1.26-4.5,1.89-7.297,1.89ZM1242.46,322.871c2.692,0,4.703-.908,6.032-2.724s1.994-4.156,1.994-7.022c0-2.937-.674-5.286-2.02-7.05-1.347-1.763-3.349-2.645-6.007-2.645-1.824,0-3.327.413-4.509,1.237-1.181.826-2.059,1.964-2.632,3.414-.573,1.451-.859,3.132-.859,5.043,0,2.953.678,5.315,2.032,7.088,1.355,1.771,3.345,2.658,5.968,2.658Z" fill="#0e1f38"/><path d="M1273.183,328.005c-2.624,0-4.887-.652-6.789-1.955s-3.37-3.079-4.403-5.329c-1.034-2.249-1.551-4.781-1.551-7.596,0-2.832.521-5.364,1.563-7.597,1.042-2.232,2.523-3.995,4.443-5.29,1.919-1.294,4.199-1.941,6.84-1.941,2.658,0,4.895.647,6.711,1.941,1.814,1.295,3.188,3.062,4.117,5.303.929,2.241,1.394,4.77,1.394,7.584s-.469,5.342-1.407,7.583c-.938,2.241-2.319,4.018-4.143,5.329-1.824,1.312-4.083,1.968-6.775,1.968ZM1273.599,340.513c-1.511,0-2.975-.234-4.391-.703-1.416-.47-2.706-1.16-3.87-2.072s-2.128-2.037-2.893-3.374l5.03-2.555c.607,1.199,1.476,2.076,2.605,2.633,1.129.556,2.319.834,3.57.834,1.546,0,2.866-.274,3.961-.821s1.924-1.368,2.488-2.463c.564-1.094.838-2.449.821-4.065v-7.869h.651v-20.978h4.821v28.899c0,.747-.026,1.459-.078,2.137-.053.678-.148,1.355-.287,2.032-.399,1.894-1.159,3.457-2.28,4.691-1.12,1.233-2.545,2.153-4.273,2.762s-3.688.912-5.877.912ZM1273.938,323.079c1.789,0,3.249-.426,4.378-1.276,1.13-.852,1.955-2.024,2.476-3.519.521-1.494.782-3.214.782-5.159s-.265-3.666-.795-5.16-1.347-2.658-2.449-3.492c-1.104-.834-2.507-1.251-4.209-1.251-1.807,0-3.292.443-4.456,1.329-1.164.887-2.028,2.076-2.593,3.57s-.847,3.162-.847,5.004c0,1.858.282,3.54.847,5.042.564,1.503,1.416,2.697,2.554,3.583,1.138.887,2.575,1.329,4.312,1.329Z" fill="#0e1f38"/><path d="M1306.174,328.005c-2.798,0-5.251-.613-7.362-1.838-2.11-1.225-3.752-2.936-4.925-5.134-1.173-2.197-1.759-4.746-1.759-7.648,0-3.074.577-5.741,1.732-8,1.155-2.258,2.767-4.004,4.834-5.237s4.474-1.851,7.219-1.851c2.866,0,5.307.665,7.322,1.993,2.016,1.329,3.522,3.219,4.521,5.668.999,2.45,1.395,5.36,1.186,8.73h-5.446v-1.98c-.035-3.267-.656-5.682-1.863-7.245s-3.045-2.345-5.512-2.345c-2.728,0-4.777.859-6.149,2.58-1.373,1.72-2.059,4.204-2.059,7.452,0,3.093.686,5.485,2.059,7.18,1.372,1.693,3.353,2.541,5.941,2.541,1.702,0,3.175-.387,4.417-1.16,1.242-.772,2.211-1.88,2.905-3.322l5.343,1.693c-1.095,2.52-2.754,4.47-4.978,5.851s-4.7,2.072-7.427,2.072ZM1296.14,314.689v-4.248h20.092v4.248h-20.092Z" fill="#0e1f38"/><path d="M1321.652,303.457v-4.378h19.231v4.378h-19.231ZM1340.884,327.223c-1.772.348-3.51.495-5.212.443-1.703-.053-3.223-.383-4.561-.99-1.338-.608-2.345-1.563-3.022-2.867-.608-1.163-.935-2.349-.978-3.557-.043-1.207-.065-2.575-.065-4.104v-24.887h5.473v24.626c0,1.13.014,2.111.039,2.945.026.833.204,1.537.534,2.11.626,1.077,1.62,1.689,2.984,1.837,1.363.148,2.966.092,4.808-.169v4.612Z" fill="#0e1f38"/><path d="M1346.772,327.223v-37.525h4.873v20.248h.651v17.277h-5.524ZM1366.551,327.223v-13.838c0-1.094-.092-2.219-.273-3.374-.183-1.155-.53-2.229-1.043-3.219s-1.233-1.789-2.163-2.397c-.93-.607-2.141-.912-3.635-.912-.974,0-1.894.161-2.763.482-.868.321-1.628.838-2.28,1.551-.651.712-1.164,1.65-1.537,2.814-.374,1.164-.561,2.579-.561,4.247l-3.388-1.276c0-2.554.478-4.809,1.434-6.763.955-1.954,2.328-3.479,4.117-4.573s3.952-1.642,6.489-1.642c1.945,0,3.578.312,4.898.938,1.32.626,2.394,1.446,3.219,2.463s1.455,2.124,1.889,3.322c.435,1.199.73,2.372.887,3.519s.234,2.154.234,3.022v15.636h-5.524Z" fill="#0e1f38"/><path d="M1391.334,328.005c-2.798,0-5.251-.613-7.362-1.838-2.11-1.225-3.752-2.936-4.925-5.134-1.173-2.197-1.759-4.746-1.759-7.648,0-3.074.577-5.741,1.732-8,1.155-2.258,2.767-4.004,4.834-5.237s4.474-1.851,7.219-1.851c2.866,0,5.307.665,7.322,1.993,2.016,1.329,3.522,3.219,4.521,5.668.999,2.45,1.395,5.36,1.186,8.73h-5.446v-1.98c-.035-3.267-.656-5.682-1.863-7.245s-3.045-2.345-5.512-2.345c-2.728,0-4.777.859-6.149,2.58-1.373,1.72-2.059,4.204-2.059,7.452,0,3.093.686,5.485,2.059,7.18,1.372,1.693,3.353,2.541,5.941,2.541,1.702,0,3.175-.387,4.417-1.16,1.242-.772,2.211-1.88,2.905-3.322l5.343,1.693c-1.095,2.52-2.754,4.47-4.978,5.851s-4.7,2.072-7.427,2.072ZM1381.301,314.689v-4.248h20.092v4.248h-20.092Z" fill="#0e1f38"/><path d="M1409.939,327.223v-28.144h4.847v6.827l-.678-.886c.348-.903.799-1.733,1.355-2.489.556-.756,1.198-1.376,1.929-1.863.712-.521,1.507-.925,2.384-1.211.877-.287,1.776-.461,2.697-.521s1.807-.013,2.658.144v5.107c-.921-.243-1.941-.312-3.062-.209-1.121.104-2.15.461-3.089,1.068-.886.573-1.585,1.269-2.098,2.085-.513.817-.882,1.725-1.107,2.724s-.339,2.055-.339,3.166v14.202h-5.498Z" fill="#0e1f38"/></svg>